<!DOCTYPE svg PUBLIC "-//W3C//DTD SVG 20010904//EN" "http://www.w3.org/TR/2001/REC-SVG-20010904/DTD/svg10.dtd">
<svg version="1.0" xmlns="http://www.w3.org/2000/svg" width="799px" height="199px" viewBox="0 0 7990 1990" preserveAspectRatio="xMidYMid meet">
<g id="layer101" fill="#313432" stroke="none">
 <path d="M533 1980 c-260 -39 -438 -193 -505 -437 -19 -72 -21 -110 -26 -467 -6 -536 10 -664 101 -800 110 -163 257 -244 487 -265 148 -14 1882 -15 2037 -1 306 27 480 160 565 430 23 74 23 79 23 555 0 428 -2 487 -18 544 -48 177 -156 309 -309 380 -45 21 -105 45 -133 52 -39 10 -285 13 -1110 15 -583 1 -1083 -2 -1112 -6z m2143 -251 c128 -24 223 -98 263 -204 11 -30 25 -91 31 -137 13 -106 13 -666 0 -783 -21 -175 -90 -272 -237 -328 l-58 -22 -1015 -3 c-690 -2 -1037 1 -1085 8 -94 15 -176 53 -224 105 -95 103 -101 140 -101 625 0 419 6 484 49 569 43 83 137 149 243 170 67 14 2062 13 2134 0z"/>
 <path d="M775 1600 c-45 -14 -115 -78 -136 -124 -17 -38 -19 -75 -19 -479 0 -373 2 -443 16 -475 19 -47 58 -88 109 -115 40 -22 42 -22 835 -25 564 -2 810 1 849 9 45 9 63 20 106 63 41 41 55 63 65 105 28 116 -27 229 -135 278 -37 17 -89 18 -707 21 l-668 3 0 268 c0 284 -6 329 -49 390 -36 50 -102 83 -174 87 -34 2 -76 -1 -92 -6z"/>
 <path d="M1538 1600 c-82 -25 -141 -92 -160 -181 -9 -45 -8 -64 6 -112 21 -71 84 -140 142 -156 62 -17 896 -15 937 2 92 39 141 117 142 223 0 61 -4 77 -30 120 -19 30 -49 60 -79 79 l-49 30 -441 2 c-243 1 -453 -2 -468 -7z"/>
 <path d="M6499 1622 c-159 -42 -265 -147 -300 -299 -15 -66 -15 -237 1 -303 58 -249 286 -377 561 -314 131 30 240 129 285 259 10 30 19 93 22 158 l4 107 -321 0 c-359 0 -332 -6 -311 72 23 82 102 137 198 138 67 0 109 -18 149 -64 l32 -36 121 0 c138 0 138 0 95 87 -84 169 -315 252 -536 195z m317 -584 c-10 -49 -50 -103 -93 -124 -49 -24 -145 -25 -191 -1 -37 20 -79 78 -88 125 l-6 32 192 0 193 0 -7 -32z"/>
 <path d="M4865 1613 c-100 -36 -142 -83 -170 -188 -12 -47 -15 -124 -15 -387 l0 -328 120 0 120 0 0 274 c0 304 7 366 47 408 49 51 148 49 208 -4 58 -51 65 -92 65 -405 l0 -273 125 0 125 0 0 450 0 450 -120 0 -120 0 0 -52 0 -52 -37 36 c-62 59 -116 80 -213 85 -64 3 -97 -1 -135 -14z"/>
 <path d="M5847 1608 c-49 -13 -93 -55 -106 -104 -7 -24 -11 -148 -11 -321 l0 -283 -60 0 -60 0 0 -90 0 -90 60 0 60 0 0 -120 0 -120 120 0 120 0 0 120 0 120 75 0 75 0 0 90 0 90 -75 0 -75 0 0 248 c0 293 -2 286 89 287 l61 0 0 93 0 92 -117 -1 c-65 -1 -135 -6 -156 -11z"/>
 <path d="M3510 1005 l0 -605 308 0 c169 0 336 5 372 11 163 26 268 144 278 309 8 131 -32 227 -119 285 l-45 31 42 26 c71 44 86 91 93 289 6 153 8 170 29 198 43 58 38 61 -122 61 l-144 0 -6 -27 c-4 -16 -10 -98 -15 -184 -9 -168 -18 -199 -64 -233 -26 -19 -45 -21 -193 -24 l-164 -4 0 236 0 236 -125 0 -125 0 0 -605z m628 -95 c31 -14 47 -29 57 -54 32 -75 10 -167 -48 -210 -26 -19 -45 -21 -208 -24 l-179 -4 0 156 0 156 168 0 c144 0 173 -3 210 -20z"/>
 <path d="M7180 1165 l0 -445 120 0 120 0 0 48 0 48 48 -46 c57 -55 116 -75 217 -74 136 1 226 48 272 142 l28 57 3 358 3 357 -126 0 -125 0 0 -306 c0 -262 -2 -311 -16 -340 -21 -45 -60 -64 -127 -64 -70 0 -114 28 -147 95 -25 49 -25 54 -28 333 l-4 282 -119 0 -119 0 0 -445z"/>
 </g>

</svg>